<mxfile host="65bd71144e">
    <diagram id="LVprCn4Ah_2OKZ0S0vy9" name="Page-1">
        <mxGraphModel dx="1041" dy="435" grid="1" gridSize="10" guides="1" tooltips="1" connect="1" arrows="1" fold="1" page="1" pageScale="1" pageWidth="850" pageHeight="1100" math="0" shadow="0">
            <root>
                <mxCell id="0"/>
                <mxCell id="1" parent="0"/>
                <mxCell id="32" value="&lt;font style=&quot;font-size: 12px;&quot;&gt;&lt;b style=&quot;font-size: 12px;&quot;&gt;Azure Cloud&lt;/b&gt;&lt;/font&gt;" style="aspect=fixed;perimeter=ellipsePerimeter;html=1;align=center;shadow=0;dashed=0;spacingTop=3;image;image=img/lib/active_directory/internet_cloud.svg;sketch=0;fontSize=12;fontColor=#E6E6E6;strokeColor=default;strokeWidth=0;rotation=90;labelBackgroundColor=#1A1A1A;labelBorderColor=#4D4D4D;textOpacity=80;" parent="1" vertex="1">
                    <mxGeometry x="329.77" y="220" width="560" height="352.8" as="geometry"/>
                </mxCell>
                <mxCell id="15" style="edgeStyle=none;html=1;fontSize=12;strokeWidth=1;strokeColor=#001DBC;fillColor=#0050ef;shadow=1;sketch=0;shape=flexArrow;rounded=1;labelBackgroundColor=#1A1A1A;labelBorderColor=#4D4D4D;textOpacity=80;fontColor=#E6E6E6;" parent="1" source="2" target="14" edge="1">
                    <mxGeometry relative="1" as="geometry"/>
                </mxCell>
                <mxCell id="23" style="edgeStyle=none;html=1;fontSize=12;strokeWidth=1;strokeColor=#001DBC;fillColor=#0050ef;shadow=1;sketch=0;shape=flexArrow;rounded=1;labelBackgroundColor=#1A1A1A;labelBorderColor=#4D4D4D;textOpacity=80;fontColor=#E6E6E6;" parent="1" source="6" target="21" edge="1">
                    <mxGeometry relative="1" as="geometry"/>
                </mxCell>
                <mxCell id="25" style="edgeStyle=none;html=1;fontSize=12;strokeWidth=1;strokeColor=#001DBC;fillColor=#0050ef;shadow=1;sketch=0;shape=flexArrow;rounded=1;labelBackgroundColor=#1A1A1A;labelBorderColor=#4D4D4D;textOpacity=80;fontColor=#E6E6E6;" parent="1" source="8" target="24" edge="1">
                    <mxGeometry relative="1" as="geometry"/>
                </mxCell>
                <mxCell id="16" style="edgeStyle=none;html=1;fontSize=12;strokeWidth=1;strokeColor=#001DBC;fillColor=#0050ef;shadow=1;sketch=0;shape=flexArrow;rounded=1;labelBackgroundColor=#1A1A1A;labelBorderColor=#4D4D4D;textOpacity=80;fontColor=#E6E6E6;" parent="1" source="13" target="14" edge="1">
                    <mxGeometry relative="1" as="geometry"/>
                </mxCell>
                <mxCell id="18" style="edgeStyle=none;html=1;fontSize=12;strokeWidth=1;strokeColor=#001DBC;fillColor=#0050ef;shadow=1;sketch=0;shape=flexArrow;rounded=1;labelBackgroundColor=#1A1A1A;labelBorderColor=#4D4D4D;textOpacity=80;fontColor=#E6E6E6;" parent="1" source="14" target="17" edge="1">
                    <mxGeometry relative="1" as="geometry"/>
                </mxCell>
                <mxCell id="22" style="edgeStyle=none;html=1;fontSize=12;strokeWidth=1;strokeColor=#001DBC;fillColor=#0050ef;shadow=1;sketch=0;shape=flexArrow;rounded=1;labelBackgroundColor=#1A1A1A;labelBorderColor=#4D4D4D;textOpacity=80;fontColor=#E6E6E6;" parent="1" source="17" target="21" edge="1">
                    <mxGeometry relative="1" as="geometry"/>
                </mxCell>
                <mxCell id="28" style="edgeStyle=none;html=1;fontSize=12;fillOpacity=100;startArrow=classic;startFill=1;rounded=1;strokeWidth=1;strokeColor=#001DBC;fillColor=#0050ef;shadow=1;sketch=0;shape=flexArrow;labelBackgroundColor=#1A1A1A;labelBorderColor=#4D4D4D;textOpacity=80;fontColor=#E6E6E6;" parent="1" source="24" target="21" edge="1">
                    <mxGeometry relative="1" as="geometry"/>
                </mxCell>
                <mxCell id="2" value="&lt;div style=&quot;text-align: left; font-size: 12px;&quot;&gt;&lt;span style=&quot;font-size: 12px;&quot;&gt;Code (Notebook)&lt;br style=&quot;font-size: 12px;&quot;&gt;=============&lt;/span&gt;&lt;/div&gt;&lt;div style=&quot;text-align: left; font-size: 12px;&quot;&gt;&lt;span style=&quot;font-size: 12px;&quot;&gt;- load data&lt;br style=&quot;font-size: 12px;&quot;&gt;- train model&lt;/span&gt;&lt;/div&gt;&lt;div style=&quot;text-align: left; font-size: 12px;&quot;&gt;&lt;span style=&quot;font-size: 12px;&quot;&gt;- predict recommendations&lt;/span&gt;&lt;/div&gt;&lt;div style=&quot;text-align: left; font-size: 12px;&quot;&gt;&lt;span style=&quot;font-size: 12px;&quot;&gt;- save in CosmosDB&lt;/span&gt;&lt;/div&gt;" style="dashed=0;outlineConnect=0;html=1;align=center;labelPosition=center;verticalLabelPosition=bottom;verticalAlign=top;shape=mxgraph.weblogos.github;aspect=fixed;labelBackgroundColor=#1A1A1A;labelBorderColor=#4D4D4D;textOpacity=80;fontColor=#E6E6E6;fontSize=12;" parent="1" vertex="1">
                    <mxGeometry x="60" y="253" width="60" height="60" as="geometry"/>
                </mxCell>
                <mxCell id="6" value="&lt;div style=&quot;text-align: left; font-size: 12px;&quot;&gt;&lt;span style=&quot;font-size: 12px;&quot;&gt;Code (Function)&lt;/span&gt;&lt;/div&gt;&lt;div style=&quot;text-align: left; font-size: 12px;&quot;&gt;&lt;span style=&quot;font-size: 12px;&quot;&gt;============&lt;br style=&quot;font-size: 12px;&quot;&gt;- HTTP trigger&lt;br style=&quot;font-size: 12px;&quot;&gt;- CosmosDB IN Binding&lt;br style=&quot;font-size: 12px;&quot;&gt;- return recommendations&lt;/span&gt;&lt;/div&gt;" style="dashed=0;outlineConnect=0;html=1;align=center;labelPosition=center;verticalLabelPosition=bottom;verticalAlign=top;shape=mxgraph.weblogos.github;aspect=fixed;labelBackgroundColor=#1A1A1A;labelBorderColor=#4D4D4D;textOpacity=80;fontColor=#E6E6E6;fontSize=12;" parent="1" vertex="1">
                    <mxGeometry x="60" y="453" width="60" height="60" as="geometry"/>
                </mxCell>
                <mxCell id="8" value="&lt;div style=&quot;text-align: left; font-size: 12px;&quot;&gt;&lt;span style=&quot;font-size: 12px;&quot;&gt;Code (Mobile App)&lt;/span&gt;&lt;/div&gt;&lt;div style=&quot;text-align: left; font-size: 12px;&quot;&gt;&lt;span style=&quot;font-size: 12px;&quot;&gt;===============&lt;br style=&quot;font-size: 12px;&quot;&gt;- call Function&lt;br style=&quot;font-size: 12px;&quot;&gt;- display recommendations&lt;/span&gt;&lt;/div&gt;" style="dashed=0;outlineConnect=0;html=1;align=center;labelPosition=center;verticalLabelPosition=bottom;verticalAlign=top;shape=mxgraph.weblogos.github;aspect=fixed;labelBackgroundColor=#1A1A1A;labelBorderColor=#4D4D4D;textOpacity=80;fontColor=#E6E6E6;fontSize=12;" parent="1" vertex="1">
                    <mxGeometry x="60" y="653" width="60" height="60" as="geometry"/>
                </mxCell>
                <mxCell id="13" value="&lt;div style=&quot;text-align: left; font-size: 12px;&quot;&gt;Data (Files)&lt;/div&gt;&lt;div style=&quot;text-align: left; font-size: 12px;&quot;&gt;============&lt;br style=&quot;font-size: 12px;&quot;&gt;- articles_metadata.csv&lt;br style=&quot;font-size: 12px;&quot;&gt;- articles_embeddings.pickle&lt;br style=&quot;font-size: 12px;&quot;&gt;- clicks/clicks/clicks_hour_***.csv&lt;/div&gt;" style="aspect=fixed;html=1;points=[];align=center;image;fontSize=12;image=img/lib/azure2/general/Files.svg;labelBackgroundColor=#1A1A1A;labelBorderColor=#4D4D4D;textOpacity=80;fontColor=#E6E6E6;" parent="1" vertex="1">
                    <mxGeometry x="260" y="39" width="60" height="65.63" as="geometry"/>
                </mxCell>
                <mxCell id="14" value="Execute Notebook" style="verticalLabelPosition=bottom;sketch=0;aspect=fixed;html=1;verticalAlign=top;strokeColor=none;align=center;outlineConnect=0;shape=mxgraph.citrix.laptop_2;fontSize=12;labelBackgroundColor=#1A1A1A;labelBorderColor=#4D4D4D;textOpacity=80;fontColor=#E6E6E6;" parent="1" vertex="1">
                    <mxGeometry x="249.76999999999998" y="253" width="80.46" height="60" as="geometry"/>
                </mxCell>
                <mxCell id="17" value="&lt;div style=&quot;text-align: left; font-size: 12px;&quot;&gt;CosmosDB&lt;/div&gt;&lt;div style=&quot;text-align: left; font-size: 12px;&quot;&gt;=========&lt;/div&gt;&lt;div style=&quot;text-align: left; font-size: 12px;&quot;&gt;- predictions storage&lt;/div&gt;" style="sketch=0;aspect=fixed;html=1;points=[];align=center;image;fontSize=12;image=img/lib/mscae/CosmosDB.svg;labelBackgroundColor=#1A1A1A;labelBorderColor=#4D4D4D;textOpacity=80;fontColor=#E6E6E6;" parent="1" vertex="1">
                    <mxGeometry x="574" y="253" width="60" height="60" as="geometry"/>
                </mxCell>
                <mxCell id="21" value="&lt;div style=&quot;text-align: left; font-size: 12px;&quot;&gt;Azure Function&lt;/div&gt;&lt;div style=&quot;text-align: left; font-size: 12px;&quot;&gt;============&lt;br style=&quot;font-size: 12px;&quot;&gt;- read predictions&lt;br style=&quot;font-size: 12px;&quot;&gt;- return recommendations&lt;/div&gt;" style="aspect=fixed;html=1;points=[];align=center;image;fontSize=12;image=img/lib/azure2/compute/Function_Apps.svg;labelBackgroundColor=#1A1A1A;labelBorderColor=#4D4D4D;textOpacity=80;fontColor=#E6E6E6;" parent="1" vertex="1">
                    <mxGeometry x="570" y="453" width="68" height="60" as="geometry"/>
                </mxCell>
                <mxCell id="24" value="&lt;font style=&quot;font-size: 12px;&quot;&gt;Execute App&lt;/font&gt;" style="fontColor=#E6E6E6;verticalAlign=top;verticalLabelPosition=bottom;labelPosition=center;align=center;html=1;outlineConnect=0;fillColor=#CCCCCC;strokeColor=#6881B3;gradientColor=none;gradientDirection=north;strokeWidth=2;shape=mxgraph.networks.mobile;fontSize=12;aspect=fixed;labelBackgroundColor=#1A1A1A;labelBorderColor=#4D4D4D;textOpacity=80;" parent="1" vertex="1">
                    <mxGeometry x="275" y="653" width="30" height="60" as="geometry"/>
                </mxCell>
            </root>
        </mxGraphModel>
    </diagram>
</mxfile>
